<svg id="_001-facebook" data-name="001-facebook" xmlns="http://www.w3.org/2000/svg" width="35" height="35" viewBox="0 0 35 35">
  <path id="Trazado_392" data-name="Trazado 392" d="M291.3,508.668q-.223.036-.447.067Q291.08,508.7,291.3,508.668Zm0,0" transform="translate(-270.977 -473.9)" fill="#fff"/>
  <path id="Trazado_393" data-name="Trazado 393" d="M299.553,507.793l-.213.037Zm0,0" transform="translate(-278.879 -473.086)" fill="#fff"/>
  <path id="Trazado_394" data-name="Trazado 394" d="M278.133,510.34q-.261.029-.524.052Q277.872,510.369,278.133,510.34Zm0,0" transform="translate(-258.637 -475.455)" fill="#fff"/>
  <path id="Trazado_395" data-name="Trazado 395" d="M286.7,509.738l-.251.031Zm0,0" transform="translate(-266.867 -474.896)" fill="#fff"/>
  <path id="Trazado_396" data-name="Trazado 396" d="M306.852,506.41l-.188.039Zm0,0" transform="translate(-285.703 -471.799)" fill="#fff"/>
  <path id="Trazado_397" data-name="Trazado 397" d="M324.636,502.113l-.152.042Zm0,0" transform="translate(-302.305 -467.801)" fill="#fff"/>
  <path id="Trazado_398" data-name="Trazado 398" d="M319.224,503.543l-.165.043Zm0,0" transform="translate(-297.25 -469.131)" fill="#fff"/>
  <path id="Trazado_399" data-name="Trazado 399" d="M312.242,505.254l-.176.039Zm0,0" transform="translate(-290.736 -470.723)" fill="#fff"/>
  <path id="Trazado_400" data-name="Trazado 400" d="M273.762,511.09l-.282.021Zm0,0" transform="translate(-254.788 -476.153)" fill="#fff"/>
  <path id="Trazado_401" data-name="Trazado 401" d="M35,17.5A17.5,17.5,0,1,0,17.5,35c.1,0,.205,0,.308,0V21.373h-3.76V16.991h3.76V13.767c0-3.739,2.283-5.775,5.619-5.775a30.95,30.95,0,0,1,3.371.172v3.908H24.5c-1.815,0-2.166.863-2.166,2.128v2.791H26.67L26.1,21.373H22.331V34.324A17.509,17.509,0,0,0,35,17.5Zm0,0" fill="#fff"/>
  <path id="Trazado_402" data-name="Trazado 402" d="M265.449,511.43q-.278.018-.558.028Q265.171,511.448,265.449,511.43Zm0,0" transform="translate(-246.788 -476.469)" fill="#fff"/>
  <path id="Trazado_403" data-name="Trazado 403" d="M260.8,511.836l-.3.007Zm0,0" transform="translate(-242.699 -476.847)" fill="#fff"/>
</svg>
