<svg id="_011-instagram" data-name="011-instagram" xmlns="http://www.w3.org/2000/svg" width="35" height="35" viewBox="0 0 35 35">
  <path id="Trazado_404" data-name="Trazado 404" d="M213.678,210.339A3.339,3.339,0,1,1,210.339,207,3.339,3.339,0,0,1,213.678,210.339Zm0,0" transform="translate(-192.839 -192.839)" fill="#fff"/>
  <path id="Trazado_405" data-name="Trazado 405" d="M151.505,137.793a3.317,3.317,0,0,0-1.9-1.9,5.542,5.542,0,0,0-1.86-.345c-1.056-.048-1.373-.059-4.048-.059s-2.992.01-4.048.058a5.545,5.545,0,0,0-1.86.345,3.319,3.319,0,0,0-1.9,1.9,5.544,5.544,0,0,0-.345,1.86c-.048,1.056-.059,1.373-.059,4.048s.01,2.991.059,4.048a5.542,5.542,0,0,0,.345,1.86,3.317,3.317,0,0,0,1.9,1.9,5.535,5.535,0,0,0,1.86.345c1.056.048,1.373.058,4.048.058s2.992-.01,4.048-.058a5.536,5.536,0,0,0,1.86-.345,3.317,3.317,0,0,0,1.9-1.9,5.547,5.547,0,0,0,.345-1.86c.048-1.056.058-1.373.058-4.048s-.01-2.992-.058-4.048A5.535,5.535,0,0,0,151.505,137.793ZM143.7,148.844a5.144,5.144,0,1,1,5.144-5.144A5.144,5.144,0,0,1,143.7,148.844Zm5.347-9.289a1.2,1.2,0,1,1,1.2-1.2A1.2,1.2,0,0,1,149.044,139.555Zm0,0" transform="translate(-126.197 -126.2)" fill="#fff"/>
  <path id="Trazado_406" data-name="Trazado 406" d="M17.5,0A17.5,17.5,0,1,0,35,17.5,17.5,17.5,0,0,0,17.5,0Zm9.988,21.643a7.373,7.373,0,0,1-.467,2.439,5.138,5.138,0,0,1-2.939,2.939,7.378,7.378,0,0,1-2.439.467c-1.072.049-1.414.061-4.143.061s-3.071-.012-4.143-.061a7.378,7.378,0,0,1-2.439-.467,5.138,5.138,0,0,1-2.939-2.939,7.371,7.371,0,0,1-.467-2.439c-.049-1.072-.061-1.414-.061-4.143s.011-3.071.061-4.143a7.373,7.373,0,0,1,.467-2.439,5.142,5.142,0,0,1,2.939-2.939,7.379,7.379,0,0,1,2.439-.467c1.072-.049,1.414-.061,4.143-.061s3.071.012,4.143.061a7.381,7.381,0,0,1,2.439.466,5.14,5.14,0,0,1,2.939,2.939,7.372,7.372,0,0,1,.467,2.439c.049,1.072.06,1.414.06,4.143S27.537,20.571,27.488,21.643Zm0,0" fill="#fff"/>
</svg>
