<svg xmlns="http://www.w3.org/2000/svg" width="30.232" height="15.204" viewBox="0 0 30.232 15.204">
  <path id="crisscross-position" d="M22.2,110.147a2.971,2.971,0,1,0-2.971-2.971A2.974,2.974,0,0,0,22.2,110.147Zm0-4.644a1.673,1.673,0,1,1-1.673,1.673A1.675,1.675,0,0,1,22.2,105.5ZM1.757,113.387a.649.649,0,0,1,.887-.235l1.593.926,8.342,1.183,6.513-.031,1.971-2.606H16.508a.657.657,0,0,1-.29-.06l-.037-.018h0l0,0a.649.649,0,0,1-.247-.9l1.525-2.764a.649.649,0,0,1,1.136.627l-1,1.815h9.225l-1-1.815a.649.649,0,1,1,1.136-.627l1.525,2.764a.649.649,0,0,1-.247.895l0,0h0l-.038.019a.644.644,0,0,1-.288.059H22.69l-2.757,3.645a.649.649,0,0,1-.515.258l-6.881.033h0a.643.643,0,0,1-.091-.006l-8.514-1.207a.648.648,0,0,1-.235-.082l-1.7-.99A.649.649,0,0,1,1.757,113.387Zm28.476,5.373a.649.649,0,0,1-.649.649H.649a.649.649,0,0,1,0-1.3H29.583A.649.649,0,0,1,30.232,118.76ZM5.295,111.149a.649.649,0,0,1,.867-.3l1.554.755,6.38-.6a.649.649,0,0,1,.607,1l-1.41,2.2a.649.649,0,0,1-1.092-.7l.69-1.075-5.233.493a.646.646,0,0,1-.345-.062l-1.717-.835A.649.649,0,0,1,5.295,111.149Z" transform="translate(0 -104.205)" fill="#fff"/>
</svg>
