<svg xmlns="http://www.w3.org/2000/svg" width="20" height="17.932" viewBox="0 0 20 17.932">
  <g id="heart" transform="translate(-6.56 -12.6)">
    <path id="Trazado_418" data-name="Trazado 418" d="M26.414,17.346c-.57-2.865-2.606-4.712-5.229-4.712a7.972,7.972,0,0,0-4.608,1.743A7.892,7.892,0,0,0,11.934,12.6c-2.623,0-4.677,1.864-5.229,4.763-.828,4.3,1.829,10.01,9.613,13.117a.673.673,0,0,0,.518,0C24.6,27.3,27.243,21.609,26.414,17.346ZM16.577,29.065c-6.834-2.83-9.2-7.766-8.491-11.442A4.032,4.032,0,0,1,11.934,14a6.873,6.873,0,0,1,4.194,1.812.7.7,0,0,0,.88,0,6.939,6.939,0,0,1,4.177-1.76,4.01,4.01,0,0,1,3.849,3.573C25.741,21.264,23.394,26.183,16.577,29.065Z" transform="translate(0 0)" fill="#752f8a"/>
  </g>
</svg>
