<svg xmlns="http://www.w3.org/2000/svg" width="23.256" height="17.357" viewBox="0 0 23.256 17.357">
  <g id="fitness" transform="translate(0 -64.93)">
    <g id="Grupo_51" data-name="Grupo 51" transform="translate(0 64.93)">
      <g id="Grupo_50" data-name="Grupo 50" transform="translate(0 0)">
        <path id="Trazado_390" data-name="Trazado 390" d="M21.863,66.658a5.261,5.261,0,0,0-7.948,6.887l-1.047.965-2.017.559a4.488,4.488,0,0,0-1.724-3.525A4.753,4.753,0,1,0,0,69.521,13.051,13.051,0,0,0,2.1,76a16.268,16.268,0,0,0,6.468,6.173l.221.112.241-.057A18.933,18.933,0,0,0,15.615,78.4,29.132,29.132,0,0,0,18.3,75.477a5.262,5.262,0,0,0,3.565-8.819ZM14.683,77.41A18.22,18.22,0,0,1,8.95,80.841c-5.217-2.765-7.676-8.684-7.585-11.272h0a3.39,3.39,0,1,1,6.3,1.853l-.357.6.6.345a3.132,3.132,0,0,1,1.577,2.828,6.1,6.1,0,0,1-.1.675l-.207,1.078,4.365-1.21,1.358-1.251a5.234,5.234,0,0,0,1.754.831A25.951,25.951,0,0,1,14.683,77.41Zm7.207-7.028a3.9,3.9,0,1,1-3.9-4.059c.054,0,.109,0,.163,0a3.9,3.9,0,0,1,3.737,4.055Z" transform="translate(0 -64.93)" fill="#fff"/>
      </g>
    </g>
    <g id="Grupo_53" data-name="Grupo 53" transform="translate(16.061 68.291)">
      <g id="Grupo_52" data-name="Grupo 52" transform="translate(0 0)">
        <path id="Trazado_391" data-name="Trazado 391" d="M356.952,139.553a1.932,1.932,0,1,0-1.5,3.24l.081,0a1.933,1.933,0,0,0,1.419-3.242Zm-1.035,1.729a.57.57,0,1,1-.387-.989h.024a.57.57,0,0,1,.363.988Z" transform="translate(-353.599 -138.93)" fill="#fff"/>
      </g>
    </g>
  </g>
</svg>
