<svg xmlns="http://www.w3.org/2000/svg" width="16.61" height="20" viewBox="0 0 16.61 20">
  <g id="Grupo_18" data-name="Grupo 18" transform="translate(-0.019)">
    <path id="Trazado_372" data-name="Trazado 372" d="M16.4,14.64a6.316,6.316,0,0,0-4.16-1.76V11.04a4.883,4.883,0,0,0,1.2-3.28V5.04A5.019,5.019,0,0,0,8.4,0,5.157,5.157,0,0,0,3.2,5.04v2.8a5.033,5.033,0,0,0,1.2,3.28v1.84a5.81,5.81,0,0,0-4.16,1.76.839.839,0,0,0-.08,1.04A10.049,10.049,0,0,0,8.324,20a9.939,9.939,0,0,0,8.16-4.24A.958.958,0,0,0,16.4,14.64ZM4.8,5.04a3.52,3.52,0,1,1,7.04,0v2.8a3.387,3.387,0,0,1-.96,2.4,3.486,3.486,0,0,1-5.12,0,3.387,3.387,0,0,1-.96-2.4ZM8.324,18.4a8.482,8.482,0,0,1-6.48-3.04,4.789,4.789,0,0,1,2.72-.88H5.2a.8.8,0,0,0,.8-.8V12.32a4.734,4.734,0,0,0,2.32.56,4.734,4.734,0,0,0,2.32-.56v1.36a.8.8,0,0,0,.8.8h.64a4.789,4.789,0,0,1,2.72.88A8.482,8.482,0,0,1,8.324,18.4Z" transform="translate(0)" fill="#752f8a"/>
  </g>
</svg>
