<svg xmlns="http://www.w3.org/2000/svg" width="137.286" height="40" viewBox="0 0 137.286 40">
  <g id="Grupo_2" data-name="Grupo 2" transform="translate(-297.154 -200.7)">
    <path id="Trazado_1" data-name="Trazado 1" d="M384,216.328a6.68,6.68,0,1,1-6.652-6.5A6.436,6.436,0,0,1,384,216.328Zm-2.535,0a4.132,4.132,0,1,0-4.117,4.27A4.138,4.138,0,0,0,381.465,216.328Z" transform="translate(-22.258 -2.677)" fill="#fff"/>
    <path id="Trazado_2" data-name="Trazado 2" d="M406.818,214.99v7.531h-2.635v-7c0-2.034-1.18-3.389-2.962-3.389-2.235,0-3.716,1.507-3.716,4.645v5.749h-2.612V210.071H397.5V211.6a5.376,5.376,0,0,1,4.317-1.881C404.808,209.72,406.818,211.876,406.818,214.99Z" transform="translate(-29.633 -2.649)" fill="#fff"/>
    <path id="Trazado_3" data-name="Trazado 3" d="M431.917,220.216a5.583,5.583,0,0,1-3.086.957c-2.687,0-4.5-1.5-4.5-4.586l-.009-6.053-2.687,0,0-2.156,2.687,0-.005-3.867,2.609,0,.006,3.867,4.268-.007,0,2.156-4.268.007.009,5.877c0,1.555.833,2.307,2.063,2.305a4.1,4.1,0,0,0,2.108-.681Z" transform="translate(-37.784 -1.255)" fill="#fff"/>
    <path id="Trazado_4" data-name="Trazado 4" d="M452.008,212.395l.011,7.531-2.635,0-.011-7.005c0-2.033-1.185-3.387-2.968-3.384-2.235,0-3.713,1.513-3.709,4.651l.009,5.749-2.612,0-.027-18.077,2.612,0,.011,7.157A5.375,5.375,0,0,1,447,207.132C449.99,207.127,452,209.281,452.008,212.395Z" transform="translate(-43.329 -0.383)" fill="#fff"/>
    <path id="Trazado_5" data-name="Trazado 5" d="M474.4,216.883l-10.091.015a3.863,3.863,0,0,0,3.772,3.682,3.718,3.718,0,0,0,3.66-2.162l2.335.5a6.046,6.046,0,0,1-5.992,3.924,6.579,6.579,0,0,1,.079-13.152,6.237,6.237,0,0,1,6.236,6.289Zm-10.02-1.843,7.332-.011A3.476,3.476,0,0,0,468.164,212,3.8,3.8,0,0,0,464.377,215.041Z" transform="translate(-49.49 -2.635)" fill="#fff"/>
    <g id="Grupo_1" data-name="Grupo 1" transform="translate(351.431 222.85)">
      <path id="Trazado_6" data-name="Trazado 6" d="M391.972,243.906v7.65h-4.54v-6.7a1.708,1.708,0,0,0-1.7-1.87c-1.164,0-1.967.921-1.967,2.475v6.1h-4.54v-6.7a1.712,1.712,0,0,0-1.723-1.87c-1.167,0-1.918.921-1.918,2.475v6.1h-4.54V239.3h4.54v1.214a4.481,4.481,0,0,1,3.593-1.576,4.357,4.357,0,0,1,3.933,2.136,5.056,5.056,0,0,1,4.272-2.136C390.029,238.933,391.972,240.9,391.972,243.906Z" transform="translate(-371.044 -234.069)" fill="#fff"/>
      <path id="Trazado_7" data-name="Trazado 7" d="M405.891,251.734V239.473h4.54v12.261Z" transform="translate(-382.526 -234.247)" fill="#fff"/>
      <path id="Trazado_8" data-name="Trazado 8" d="M429.227,243.956v7.6h-4.565v-6.628a1.736,1.736,0,0,0-1.723-1.944c-1.212,0-2.015.9-2.015,2.622v5.95h-4.54V239.3h4.54v1.238a4.919,4.919,0,0,1,3.69-1.6C427.383,238.933,429.227,240.849,429.227,243.956Z" transform="translate(-385.984 -234.069)" fill="#fff"/>
      <path id="Trazado_9" data-name="Trazado 9" d="M451.407,251.734h-4.54V250.5a4.92,4.92,0,0,1-3.69,1.6c-2.768,0-4.614-1.916-4.614-5.024v-7.6h4.565V246.1a1.736,1.736,0,0,0,1.723,1.943c1.215,0,2.015-.9,2.015-2.622v-5.949h4.54Z" transform="translate(-393.292 -234.247)" fill="#fff"/>
      <path id="Trazado_10" data-name="Trazado 10" d="M469.835,249.468a7.093,7.093,0,0,1-3.495.9c-3.206,0-4.955-1.82-4.955-4.9v-4.176h-1.868v-3.543h1.868v-3.52h4.542v3.52h3.253v3.543h-3.253v3.667c0,1.068.534,1.48,1.456,1.48a3.713,3.713,0,0,0,1.554-.385Z" transform="translate(-400.196 -232.517)" fill="#fff"/>
      <path id="Trazado_11" data-name="Trazado 11" d="M488.428,246.532H479.81a2.237,2.237,0,0,0,2.232,1.893,2.264,2.264,0,0,0,2.162-1.192l4.054.8c-1.02,2.622-3.325,3.883-6.216,3.883a6.5,6.5,0,1,1,0-12.986c3.642,0,6.362,2.425,6.385,6.747Zm-8.569-2.5h4.176a2.018,2.018,0,0,0-1.992-1.554A2.241,2.241,0,0,0,479.859,244.03Z" transform="translate(-405.419 -234.069)" fill="#fff"/>
      <rect id="Rectángulo_1" data-name="Rectángulo 1" width="4.517" height="3.674" transform="translate(23.365)" fill="#fff"/>
    </g>
    <path id="Trazado_12" data-name="Trazado 12" d="M328.4,216.005v8.7l-5.688,9.215h-4.805l4.2-8.273h-4.2v-9.642Z" transform="translate(-6.838 -4.359)" fill="#fff"/>
    <path id="Trazado_13" data-name="Trazado 13" d="M316.368,200.7c-10.6,0-19.215,8.931-19.215,19.909a19.825,19.825,0,0,0,13.026,18.756l2.027-3.4a15.908,15.908,0,0,1-11.3-15.351c0-8.831,6.935-16.015,15.46-16.015s15.46,7.184,15.46,16.015a15.758,15.758,0,0,1-15.2,15.989l-2.209,3.716a18.162,18.162,0,0,0,1.953.2c10.6,0,19.214-8.931,19.214-19.909S326.964,200.7,316.368,200.7Z" fill="#fff"/>
  </g>
</svg>
