<svg xmlns="http://www.w3.org/2000/svg" xmlns:xlink="http://www.w3.org/1999/xlink" width="137.288" height="40" viewBox="0 0 137.288 40">
  <defs>
    <linearGradient id="linear-gradient" x1="0.673" y1="0.917" x2="0.534" y2="0.426" gradientUnits="objectBoundingBox">
      <stop offset="0" stop-color="#73308a"/>
      <stop offset="1" stop-color="#73308a" stop-opacity="0"/>
    </linearGradient>
  </defs>
  <g id="Grupo_12" data-name="Grupo 12" transform="translate(-543.06 -296.276)">
    <path id="Trazado_30" data-name="Trazado 30" d="M711.98,322.176a6.791,6.791,0,1,1-6.762-6.611A6.542,6.542,0,0,1,711.98,322.176Zm-2.578,0a4.2,4.2,0,1,0-4.185,4.341A4.206,4.206,0,0,0,709.4,322.176Z" transform="translate(-104.201 -12.892)" fill="#73308a"/>
    <path id="Trazado_31" data-name="Trazado 31" d="M761.783,320.7v7.656H759.1v-7.121c0-2.067-1.2-3.445-3.012-3.445-2.272,0-3.777,1.532-3.777,4.722v5.844H749.66V315.7h2.655v1.556a5.466,5.466,0,0,1,4.389-1.913C759.74,315.341,761.783,317.533,761.783,320.7Z" transform="translate(-138.601 -12.744)" fill="#73308a"/>
    <path id="Trazado_32" data-name="Trazado 32" d="M816.634,320.294a5.676,5.676,0,0,1-3.138.974c-2.732,0-4.57-1.525-4.575-4.662l-.009-6.153-2.732,0,0-2.192,2.732,0-.006-3.932,2.652,0,.006,3.932,4.339-.007,0,2.192-4.339.006.009,5.975c0,1.58.847,2.345,2.1,2.343a4.171,4.171,0,0,0,2.143-.692Z" transform="translate(-176.54 -5.453)" fill="#73308a"/>
    <path id="Trazado_33" data-name="Trazado 33" d="M857.287,309.44l.012,7.656-2.679,0-.011-7.121c0-2.067-1.205-3.443-3.017-3.44-2.272,0-3.775,1.538-3.77,4.728l.009,5.844-2.655,0-.028-18.377,2.655,0,.011,7.276a5.466,5.466,0,0,1,4.387-1.92C855.236,304.085,857.283,306.275,857.287,309.44Z" transform="translate(-202.66 -1.665)" fill="#73308a"/>
    <path id="Trazado_34" data-name="Trazado 34" d="M903.8,322.59l-10.258.016a3.926,3.926,0,0,0,3.834,3.743,3.78,3.78,0,0,0,3.721-2.2l2.374.507a6.146,6.146,0,0,1-6.092,3.989,6.688,6.688,0,0,1,.081-13.371,6.341,6.341,0,0,1,6.339,6.394Zm-10.186-1.873,7.454-.011a3.533,3.533,0,0,0-3.6-3.083A3.862,3.862,0,0,0,893.617,320.717Z" transform="translate(-233.147 -12.698)" fill="#73308a"/>
    <g id="Grupo_11" data-name="Grupo 11" transform="translate(595.96 318.13)">
      <g id="Grupo_10" data-name="Grupo 10" transform="translate(0 0)">
        <path id="Trazado_35" data-name="Trazado 35" d="M720.524,382.148v7.777h-4.616v-6.813a1.737,1.737,0,0,0-1.729-1.9c-1.183,0-2,.937-2,2.517v6.2h-4.615v-6.813a1.741,1.741,0,0,0-1.752-1.9c-1.186,0-1.95.937-1.95,2.517v6.2h-4.615V377.46h4.615v1.235a4.557,4.557,0,0,1,3.653-1.6,4.429,4.429,0,0,1,4,2.171,5.142,5.142,0,0,1,4.343-2.171C718.548,377.092,720.524,379.091,720.524,382.148Z" transform="translate(-699.247 -372.147)" fill="#73308a"/>
        <path id="Trazado_36" data-name="Trazado 36" d="M772.907,390.7V378.233h4.616V390.7Z" transform="translate(-749.154 -372.92)" fill="#73308a"/>
        <path id="Trazado_37" data-name="Trazado 37" d="M808.145,382.2v7.726H803.5v-6.738a1.765,1.765,0,0,0-1.752-1.976c-1.233,0-2.048.914-2.048,2.666v6.048h-4.615V377.46H799.7v1.258a5,5,0,0,1,3.751-1.626C806.269,377.092,808.145,379.04,808.145,382.2Z" transform="translate(-764.182 -372.147)" fill="#73308a"/>
        <path id="Trazado_38" data-name="Trazado 38" d="M855.028,390.7h-4.615V389.44a5,5,0,0,1-3.751,1.626c-2.814,0-4.69-1.948-4.69-5.107v-7.726h4.641v6.738a1.765,1.765,0,0,0,1.752,1.976c1.235,0,2.048-.913,2.048-2.665v-6.048h4.615Z" transform="translate(-795.948 -372.92)" fill="#73308a"/>
        <path id="Trazado_39" data-name="Trazado 39" d="M896.751,382.634a7.208,7.208,0,0,1-3.553.913c-3.259,0-5.037-1.85-5.037-4.986v-4.245h-1.9v-3.6h1.9v-3.579h4.618v3.579h3.306v3.6h-3.306v3.728c0,1.086.543,1.505,1.48,1.505a3.776,3.776,0,0,0,1.58-.391Z" transform="translate(-825.955 -365.401)" fill="#73308a"/>
        <path id="Trazado_40" data-name="Trazado 40" d="M933.042,384.818h-8.76a2.274,2.274,0,0,0,2.269,1.924,2.3,2.3,0,0,0,2.2-1.211l4.122.815c-1.037,2.665-3.381,3.947-6.319,3.947a6.6,6.6,0,1,1,0-13.2c3.7,0,6.468,2.465,6.491,6.859Zm-8.711-2.544h4.245a2.05,2.05,0,0,0-2.025-1.579A2.278,2.278,0,0,0,924.331,382.273Z" transform="translate(-848.654 -372.147)" fill="#73308a"/>
        <rect id="Rectángulo_12" data-name="Rectángulo 12" width="4.592" height="3.735" transform="translate(23.753)" fill="#73308a"/>
      </g>
    </g>
    <path id="Trazado_41" data-name="Trazado 41" d="M597.594,328.627v8.843l-5.782,9.369h-4.885l4.267-8.41h-4.267v-9.8Z" transform="translate(-29.721 -21.553)" fill="#73308a"/>
    <path id="Trazado_42" data-name="Trazado 42" d="M562.594,296.276a19.907,19.907,0,0,0-6.291,38.662l2.06-3.4a15.548,15.548,0,1,1,4.492.637l-2.246,3.715a18.778,18.778,0,0,0,1.985.2,19.911,19.911,0,0,0,0-39.815Z" transform="translate(0 0)" fill="#3c3c3b"/>
    <path id="Trazado_43" data-name="Trazado 43" d="M562.594,296.276a19.92,19.92,0,0,0-6.291,38.683l2.06-3.406a16.02,16.02,0,0,1,4.231-31.382C571.261,300.171,573.365,296.276,562.594,296.276Z" transform="translate(0 0)" fill="url(#linear-gradient)"/>
  </g>
</svg>
