<svg xmlns="http://www.w3.org/2000/svg" width="35" height="35.001" viewBox="0 0 35 35.001">
  <g id="pinterest" transform="translate(-385.194 725.806)">
    <path id="Exclusión_1" data-name="Exclusión 1" d="M-1822.5-4374a17.4,17.4,0,0,1-6.812-1.375,17.522,17.522,0,0,1-2.973-1.614,17.607,17.607,0,0,1-2.59-2.137,17.607,17.607,0,0,1-2.137-2.589,17.533,17.533,0,0,1-1.613-2.973A17.393,17.393,0,0,1-1840-4391.5a17.394,17.394,0,0,1,1.375-6.812,17.518,17.518,0,0,1,1.613-2.973,17.611,17.611,0,0,1,2.137-2.59,17.635,17.635,0,0,1,2.59-2.137,17.486,17.486,0,0,1,2.973-1.614A17.382,17.382,0,0,1-1822.5-4409a17.382,17.382,0,0,1,6.812,1.375,17.5,17.5,0,0,1,2.973,1.614,17.626,17.626,0,0,1,2.59,2.137,17.6,17.6,0,0,1,2.137,2.59,17.5,17.5,0,0,1,1.614,2.973A17.391,17.391,0,0,1-1805-4391.5a17.391,17.391,0,0,1-1.375,6.813,17.525,17.525,0,0,1-1.614,2.973,17.591,17.591,0,0,1-2.137,2.589,17.6,17.6,0,0,1-2.59,2.137,17.533,17.533,0,0,1-2.973,1.614A17.4,17.4,0,0,1-1822.5-4374Zm-1.191-22.559a2.181,2.181,0,0,0-1.86,1.261,4.709,4.709,0,0,0-.576,2.107,3.812,3.812,0,0,0,.457,2.07c-.193.949-.449,1.9-.7,2.829a20.648,20.648,0,0,0-.969,8.7,6.744,6.744,0,0,0,2.226-3.12,23.658,23.658,0,0,0,1.105-4.239c.259.157.486.314.705.467a4.071,4.071,0,0,0,2.211.921c.164.013.329.02.492.02a5.736,5.736,0,0,0,4.417-2.063,9.892,9.892,0,0,0,2.034-7.675,6.425,6.425,0,0,0-2.752-4.479,8.341,8.341,0,0,0-2.483-1.167,10.474,10.474,0,0,0-2.906-.4,11.758,11.758,0,0,0-1.3.073,8.47,8.47,0,0,0-2.652.755,8.7,8.7,0,0,0-2.325,1.581,7.794,7.794,0,0,0-1.677,2.287,7.222,7.222,0,0,0-.705,2.875,6.254,6.254,0,0,0,.583,3.253,3.275,3.275,0,0,0,.958,1.1,4.059,4.059,0,0,0,1.513.649,2.009,2.009,0,0,0-.062-2.457,3.121,3.121,0,0,1-.493-1.153,5.563,5.563,0,0,1,.164-2.529,5.858,5.858,0,0,1,1.161-2.1,6.8,6.8,0,0,1,2.27-1.726,6.487,6.487,0,0,1,2.746-.633,5.213,5.213,0,0,1,3.8,1.57,5.148,5.148,0,0,1,1.226,3.313,9.215,9.215,0,0,1-.66,3.977,5.5,5.5,0,0,1-1.334,1.98,2.892,2.892,0,0,1-1.961.79,3.09,3.09,0,0,1-.6-.061,1.717,1.717,0,0,1-1.233-.758,2.383,2.383,0,0,1-.163-1.606,15.031,15.031,0,0,1,.541-2.005,10.4,10.4,0,0,0,.6-2.57,1.94,1.94,0,0,0-.2-1,1.47,1.47,0,0,0-.8-.666A2.173,2.173,0,0,0-1823.69-4396.556Z" transform="translate(2225.193 3683.192)" fill="#fff"/>
  </g>
</svg>
