<svg xmlns="http://www.w3.org/2000/svg" width="11.907" height="28.31" viewBox="0 0 11.907 28.31">
  <g id="Grupo_49" data-name="Grupo 49" transform="translate(-152.68)">
    <g id="Grupo_48" data-name="Grupo 48" transform="translate(152.68 6.923)">
      <g id="Grupo_47" data-name="Grupo 47" transform="translate(0)">
        <path id="Trazado_388" data-name="Trazado 388" d="M164.587,133.953a4.754,4.754,0,0,0-3.37-4.542,1.973,1.973,0,0,0,.076-.531,2.367,2.367,0,0,0-.79-1.694l-.046-.046-2.655-1.931h-.271a3.784,3.784,0,0,0-3.778,3.43l-1.073,11.642h3.206v5.481a.833.833,0,0,0,.833.833h0a.833.833,0,0,0,.833-.833v-5.481h4.839l-.392-2.1A4.733,4.733,0,0,0,164.587,133.953ZM160.8,136.88l-.694.227.281,1.508h-5.879l.9-9.818a2.129,2.129,0,0,1,.363-1v2.16a4.769,4.769,0,0,0,4.769,4.769h.049a.833.833,0,0,0,.833-.833h0a.833.833,0,0,0-.833-.833h-.049a3.1,3.1,0,0,1-3.1-3.1v-2.95l1.926,1.4a.781.781,0,0,1,.26.462c0,.1-.065.281-.366.575l-1.468,1.43h2.049a3.079,3.079,0,0,1,.957,6.006Z" transform="translate(-152.68 -125.209)" fill="#fff"/>
      </g>
    </g>
    <path id="Trazado_389" data-name="Trazado 389" d="M176.117,1.382a1.663,1.663,0,1,1-1.663,1.663,1.665,1.665,0,0,1,1.663-1.663m0-1.382a3.045,3.045,0,1,0,3.045,3.045A3.045,3.045,0,0,0,176.117,0Z" transform="translate(-19.265 0)" fill="#fff"/>
  </g>
</svg>
