<svg xmlns="http://www.w3.org/2000/svg" width="30" height="29.999" viewBox="0 0 30 29.999">
  <g id="Grupo_61" data-name="Grupo 61" transform="translate(-1059 -3884)">
    <g id="Grupo_39" data-name="Grupo 39" transform="translate(-584.281 4532.898)">
      <path id="Trazado_380" data-name="Trazado 380" d="M1643.724-637.5a14.994,14.994,0,0,1,18.16-10.954,14.994,14.994,0,0,1,10.954,18.159,15,15,0,0,1-18.16,10.954,14.994,14.994,0,0,1-10.954-18.16" transform="translate(0 0)" fill="#dc0f10"/>
      <path id="Trazado_381" data-name="Trazado 381" d="M1654.794-637.841h28.059a15.621,15.621,0,0,0-10.452-10.566c-7.5-2.074-15.075,2.6-17.607,10.566" transform="translate(-10.542 0)" fill="#dc0f10"/>
      <path id="Trazado_382" data-name="Trazado 382" d="M1672.965-508.736l.02-.106c.011-.062.022-.124.033-.185.006-.036.012-.072.018-.108.011-.064.021-.128.031-.192l.015-.1q.018-.12.034-.24c0-.016,0-.032.007-.047q.019-.144.036-.288c0-.025.006-.051.009-.076.008-.071.016-.141.023-.212q.005-.05.01-.1c.006-.063.012-.126.017-.19,0-.035.006-.07.009-.1.005-.064.01-.128.014-.191,0-.032,0-.065.007-.1,0-.073.009-.147.013-.22,0-.022,0-.044,0-.066q.007-.144.012-.288c0-.016,0-.031,0-.047q0-.12.006-.239,0-.045,0-.091c0-.066,0-.131,0-.2v-.1c0-.064,0-.128,0-.192q0-.048,0-.095c0-.07,0-.141-.005-.211,0-.024,0-.049,0-.073q-.01-.286-.028-.57,0-.037-.005-.075-.007-.1-.015-.208c0-.03-.005-.06-.008-.09-.005-.065-.011-.13-.018-.2,0-.03-.006-.06-.009-.09q-.01-.1-.022-.207c0-.024-.005-.049-.008-.073q-.033-.283-.075-.564l-.008-.051c-.011-.076-.023-.151-.036-.227,0-.026-.009-.052-.013-.077q-.017-.1-.035-.2c0-.027-.01-.054-.015-.08q-.019-.1-.039-.207l-.014-.069c-.017-.084-.035-.169-.053-.253l0-.019c-.019-.088-.039-.176-.06-.264h0q-.17-.732-.4-1.441h-28.251q-.248.776-.431,1.592a18.368,18.368,0,0,0-.257,6.611l0,.029c.011.078.023.156.036.234l.008.049q.018.109.036.218l.011.065q.018.1.037.205l.015.077c.013.065.025.13.039.194.006.03.013.06.019.09.013.061.025.121.039.181s.021.091.031.137c.016.068.031.137.048.2s.032.134.05.2l.023.088c.016.063.033.127.05.19l.025.089c.018.063.035.126.053.189l.025.087q.028.095.057.189l.026.085q.029.1.06.19l.014.044h0c.013.039.025.078.038.117h28.137c.013-.039.024-.078.037-.117h0c.032-.1.062-.2.092-.294l.009-.029q.059-.193.113-.388l.016-.054q.05-.182.1-.367c.007-.026.014-.051.02-.077q.055-.219.1-.442.032-.144.062-.287c.006-.031.012-.061.018-.092.013-.066.026-.131.039-.2" transform="translate(-0.008 -121.755)" fill="#ffc700"/>
    </g>
  </g>
</svg>
