<svg xmlns="http://www.w3.org/2000/svg" width="30" height="29.999" viewBox="0 0 30 29.999">
  <g id="Grupo_60" data-name="Grupo 60" transform="translate(-967 -3886)">
    <g id="Grupo_59" data-name="Grupo 59" transform="translate(-273.931 3754.811)">
      <g id="Grupo_58" data-name="Grupo 58" transform="translate(-926.545 805.991)">
        <g id="Grupo_57" data-name="Grupo 57" transform="translate(2167.476 -674.801)">
          <path id="Trazado_411" data-name="Trazado 411" d="M2167.919-663.4a14.994,14.994,0,0,1,18.16-10.954,14.994,14.994,0,0,1,10.955,18.159,15,15,0,0,1-18.161,10.954,14.994,14.994,0,0,1-10.954-18.16" transform="translate(-2167.476 674.801)" fill="#f4f4f4"/>
          <path id="Trazado_412" data-name="Trazado 412" d="M2201.35-663.4h-11.618v2.3h12.356a14.985,14.985,0,0,0-.738-2.3m-2.965-4.594h-8.653v2.3h10.433a15.064,15.064,0,0,0-1.78-2.3m-21.737,20.671h21.665a14.893,14.893,0,0,0,1.807-2.3h-25.275a15.043,15.043,0,0,0,1.8,2.3m14.435-24.931c-.45-.112-.9-.2-1.35-.269v2.233h5.9a14.962,14.962,0,0,0-4.546-1.964m11.356,13.446h-12.706v2.3h12.7a14.929,14.929,0,0,0,.008-2.3m-28.8,6.892h27.678a15.1,15.1,0,0,0,.718-2.179c.01-.04.019-.079.028-.119H2172.89a15,15,0,0,0,.751,2.3m10.235,8.775a15.079,15.079,0,0,0,2.657.412h1.909a14.994,14.994,0,0,0,7.059-2.3H2179.45a14.977,14.977,0,0,0,4.426,1.886" transform="translate(-2172.479 672.693)" fill="#dc0f10"/>
          <path id="Trazado_413" data-name="Trazado 413" d="M2183.6-659.3l-.324-.236-.325.236.123-.38-.323-.236h.4l.125-.381.122.381h.4l-.323.236Zm-1.593-12.086.124.383-.324-.236-.325.236.124-.383-.324-.234h.4l.125-.383.124.383h.4Zm0,3.453.124.381-.324-.236-.325.236.124-.381-.324-.236h.4l.125-.38.124.38h.4Zm-.03,3.383.124.381-.324-.236-.324.236.123-.381-.324-.236h.4l.124-.38.123.38h.4Zm.094,3.724-.324-.236-.324.236.124-.381-.325-.236h.4l.124-.38.123.38h.4l-.325.236Zm-1.594-8.887.125.38-.324-.234-.326.234.125-.38-.323-.236h.4l.125-.38.122.38h.4Zm0,3.346.125.381-.324-.236-.326.236.125-.381-.323-.236h.4l.125-.381.122.381h.4Zm0,3.42.125.383-.324-.236-.326.236.125-.383-.323-.234h.4l.125-.383.122.383h.4Zm.125,3.647-.324-.236-.326.236.125-.38-.323-.236h.4l.125-.381.122.381h.4l-.324.236Zm-1.594-12.086.124.383-.324-.236-.325.236.124-.383-.323-.234h.4l.124-.383.123.383h.4Zm0,3.453.124.381-.324-.236-.325.236.124-.381-.323-.236h.4l.124-.38.123.38h.4Zm-.029,3.383.124.381-.325-.236-.323.236.123-.381-.324-.236h.4l.124-.38.124.38h.4Zm.093,3.724-.324-.236-.324.236.124-.381-.324-.236h.4l.124-.38.124.38h.4l-.324.236Zm-1.593-12.231.123.38-.323-.236-.325.236.124-.38-.323-.236h.4l.124-.38.124.38h.4Zm0,3.343.123.38-.323-.234-.325.234.124-.38-.323-.236h.4l.124-.38.124.38h.4Zm0,3.346.123.381-.323-.236-.325.236.124-.381-.323-.236h.4l.124-.381.124.381h.4Zm0,3.42.123.383-.323-.236-.325.236.124-.383-.323-.234h.4l.124-.383.124.383h.4Zm.123,3.647-.323-.236-.325.236.124-.38-.323-.236h.4l.124-.381.124.381h.4l-.324.236Zm-1.593-12.206.124.383-.325-.236-.324.236.125-.383-.324-.234h.4l.124-.38.124.38h.4Zm0,3.453.124.38-.325-.234-.324.234.125-.38-.324-.236h.4l.124-.38.124.38h.4Zm-.031,3.383.125.381-.324-.236-.325.236.124-.381-.324-.236h.4l.124-.381.123.381h.4Zm.1,3.726-.325-.236-.324.236.124-.383-.325-.234h.4l.124-.38.124.38h.4l-.324.234Zm-1.593-8.769.125.38-.324-.234-.325.234.124-.38-.323-.236h.4l.125-.38.123.38h.4Zm0,3.346.125.381-.324-.236-.325.236.124-.381-.323-.236h.4l.125-.381.123.381h.4Zm0,3.42.125.383-.324-.236-.325.236.124-.383-.323-.234h.4l.125-.383.123.383h.4Zm.125,3.647-.324-.236-.325.236.124-.38-.323-.236h.4l.125-.381.123.381h.4l-.324.236Zm-1.594-8.786.123.381-.324-.236-.324.236.124-.381-.324-.236h.4l.123-.38.123.38h.4Zm-.03,3.383.124.38-.324-.236-.324.236.123-.38-.324-.236h.4l.125-.381.123.381h.4Zm.093,3.724-.324-.236-.324.236.123-.38-.325-.236h.4l.124-.38.125.38h.4l-.325.236Zm7.078-12.314.125-.38.122.38h.4l-.324.236.125.38-.324-.236-.326.236.125-.38-.323-.236Zm3,10.112.125-.383.122.383h.4l-.323.234.124.383-.324-.236-.325.236.123-.383-.323-.234Zm0-3.422.125-.381.122.381h.4l-.323.236.124.381-.324-.236-.325.236.123-.381-.323-.236Zm0-3.346.125-.38.122.38h.4l-.323.236.124.38-.324-.234-.325.234.123-.38-.323-.236Zm0-3.344.125-.38.122.38h.4l-.323.236.124.38-.324-.236-.325.236.123-.38-.323-.236Zm-11.669,6.926.124.381-.325-.236-.323.236.123-.381-.325-.236h.4l.125-.381.124.381h.4Zm0,3.42.124.383-.325-.236-.323.236.123-.383-.325-.234h.4l.125-.383.124.383h.4Zm.124,3.647-.325-.236-.323.236.123-.38-.325-.236h.4l.125-.381.124.381h.4l-.324.236Zm-1.625-5.463.125.38-.325-.236-.324.236.124-.38-.325-.236h.4l.123-.381.125.381h.4Zm.094,3.724-.323-.236-.326.236.125-.38-.324-.236h.4l.125-.38.123.38h.4l-.325.236Zm-1.469,1.738-.324-.236-.325.236.124-.38-.323-.236h.4l.124-.381.125.381h.4l-.323.236Zm16.13-15.172c-.147-.023-1.241-.142-1.388-.161l-2.7.1a15.037,15.037,0,0,0-7.574,3.206l.055.17-.14-.1a14.985,14.985,0,0,0-1.41,1.31h.222l-.324.236.124.38-.325-.234-.129.093q-.453.522-.86,1.09h.045l-.094.068q-.1.139-.194.28l.087.268-.178-.129a14.975,14.975,0,0,0-2.031,4.648c-.005.022-.01.044-.015.067h.249l.124-.383.125.383h.4l-.323.234.124.383-.324-.236-.325.236.124-.383-.193-.14a14.975,14.975,0,0,0-.357,4.649h17.2Z" transform="translate(-2167.486 674.647)" fill="#0f2859"/>
        </g>
      </g>
    </g>
  </g>
</svg>
