<svg xmlns="http://www.w3.org/2000/svg" width="20" height="20" viewBox="0 0 20 20">
  <g id="play-button" transform="translate(-6.3 -6.3)">
    <g id="Grupo_105" data-name="Grupo 105" transform="translate(6.3 6.3)">
      <path id="Trazado_419" data-name="Trazado 419" d="M16.3,26.3a10,10,0,1,0-10-10A10.009,10.009,0,0,0,16.3,26.3Zm0-18.591A8.591,8.591,0,1,1,7.709,16.3,8.594,8.594,0,0,1,16.3,7.709Z" transform="translate(-6.3 -6.3)" fill="#752f8a"/>
      <path id="Trazado_420" data-name="Trazado 420" d="M50.958,43.82a.763.763,0,0,0,.282.05.724.724,0,0,0,.511-.2L56.4,39.222a.656.656,0,0,0,.212-.487.631.631,0,0,0-.212-.487L51.734,33.8a.759.759,0,0,0-.793-.151.682.682,0,0,0-.441.638v8.895A.707.707,0,0,0,50.958,43.82Zm.987-7.871,2.926,2.786-2.926,2.786Z" transform="translate(-42.989 -28.788)" fill="#752f8a"/>
    </g>
  </g>
</svg>
